<svg width="200" height="66" viewBox="0 0 200 66" fill="none" xmlns="http://www.w3.org/2000/svg">
<g clip-path="url(#clip0_270_3217)">
<path d="M5.13237 53.6279C6.37905 53.6279 7.46849 53.8726 8.40069 54.3619C9.34412 54.8398 10.0685 55.534 10.5739 56.4443C11.0906 57.3433 11.3489 58.3959 11.3489 59.6021C11.3489 60.8083 11.0906 61.8552 10.5739 62.7428C10.0685 63.6303 9.34412 64.3131 8.40069 64.791C7.46849 65.2576 6.37905 65.4909 5.13237 65.4909H1.30811V53.6279H5.13237ZM5.13237 63.9034C6.50259 63.9034 7.55272 63.5279 8.28276 62.7769C9.01279 62.0259 9.37781 60.9676 9.37781 59.6021C9.37781 58.2252 9.01279 57.1498 8.28276 56.376C7.55272 55.6022 6.50259 55.2153 5.13237 55.2153H3.22866V63.9034H5.13237Z" fill="black"/>
<path d="M18.2051 55.1983V58.6803H22.2485V60.2677H18.2051V63.9034H22.7539V65.4908H16.2847V53.6108H22.7539V55.1983H18.2051Z" fill="black"/>
<path d="M35.2107 63.067H30.3083L29.4659 65.4908H27.4612L31.6561 53.6108H33.8799L38.0748 65.4908H36.0532L35.2107 63.067ZM34.6716 61.4796L32.7679 55.9664L30.8473 61.4796H34.6716Z" fill="black"/>
<path d="M44.852 63.9205H48.8109V65.4909H42.9314V53.6279H44.852V63.9205Z" fill="black"/>
<path d="M55.37 55.1983V58.6803H59.4133V60.2677H55.37V63.9034H59.9188V65.4908H53.4495V53.6108H59.9188V55.1983H55.37Z" fill="black"/>
<path d="M71.3986 65.4909L68.7031 60.7457H67.2374V65.4909H65.3169V53.6279H69.3601C70.2586 53.6279 71.0168 53.7872 71.6344 54.1059C72.2634 54.4245 72.7296 54.8512 73.0327 55.386C73.3472 55.9209 73.5044 56.5183 73.5044 57.1783C73.5044 57.9521 73.2798 58.6576 72.8306 59.2948C72.3926 59.9207 71.7131 60.3474 70.7921 60.575L73.6898 65.4909H71.3986ZM67.2374 59.1924H69.3601C70.0789 59.1924 70.6181 59.0103 70.9775 58.6462C71.3481 58.2821 71.5334 57.7928 71.5334 57.1783C71.5334 56.5638 71.3536 56.0859 70.9942 55.7445C70.6349 55.3917 70.0901 55.2153 69.3601 55.2153H67.2374V59.1924Z" fill="black"/>
<path d="M93.4616 63.067H88.5591L87.7168 65.4908H85.7119L89.9069 53.6108H92.1306L96.3255 65.4908H94.3039L93.4616 63.067ZM92.9225 61.4796L91.0188 55.9664L89.0982 61.4796H92.9225Z" fill="black"/>
<path d="M110.802 65.4908H108.881L103.102 56.632V65.4908H101.182V53.6108H103.102L108.881 62.4526V53.6108H110.802V65.4908Z" fill="black"/>
<path d="M123.415 63.067H118.513L117.67 65.4908H115.665L119.861 53.6108H122.084L126.279 65.4908H124.257L123.415 63.067ZM122.876 61.4796L120.972 55.9664L119.051 61.4796H122.876Z" fill="black"/>
<path d="M133.056 63.9205H137.015V65.4909H131.135V53.6279H133.056V63.9205Z" fill="black"/>
<path d="M150.329 53.6279L146.455 61.1895V65.4909H144.534V61.1895L140.643 53.6279H142.783L145.494 59.4484L148.207 53.6279H150.329Z" fill="black"/>
<path d="M162.45 53.6279V55.2153H159.334V65.4909H157.413V55.2153H154.28V53.6279H162.45Z" fill="black"/>
<path d="M169.349 53.6279V65.4909H167.428V53.6279H169.349Z" fill="black"/>
<path d="M174.263 59.5341C174.263 58.3734 174.527 57.3322 175.055 56.4105C175.593 55.4887 176.317 54.7719 177.228 54.2598C178.149 53.7363 179.153 53.4746 180.243 53.4746C181.489 53.4746 182.596 53.7875 183.562 54.4134C184.539 55.0279 185.246 55.9041 185.685 57.042H183.377C183.073 56.4162 182.652 55.9496 182.113 55.6424C181.574 55.3351 180.95 55.1815 180.243 55.1815C179.469 55.1815 178.777 55.3579 178.171 55.7106C177.564 56.0634 177.087 56.5698 176.738 57.2298C176.402 57.8898 176.234 58.6579 176.234 59.5341C176.234 60.4103 176.402 61.1784 176.738 61.8384C177.087 62.4984 177.564 63.0105 178.171 63.3746C178.777 63.7274 179.469 63.9037 180.243 63.9037C180.95 63.9037 181.574 63.7501 182.113 63.4429C182.652 63.1356 183.073 62.6691 183.377 62.0432H185.685C185.246 63.1812 184.539 64.0574 183.562 64.6719C182.596 65.2863 181.489 65.5936 180.243 65.5936C179.142 65.5936 178.137 65.3375 177.228 64.8255C176.317 64.302 175.593 63.5794 175.055 62.6577C174.527 61.736 174.263 60.6948 174.263 59.5341Z" fill="black"/>
<path d="M194.823 65.6106C194.037 65.6106 193.329 65.4741 192.7 65.201C192.071 64.9165 191.577 64.5182 191.217 64.0062C190.858 63.4941 190.679 62.8967 190.679 62.2139H192.734C192.779 62.726 192.975 63.147 193.323 63.477C193.682 63.807 194.182 63.972 194.823 63.972C195.486 63.972 196.002 63.8127 196.373 63.4941C196.743 63.1641 196.929 62.7431 196.929 62.231C196.929 61.8327 196.81 61.5084 196.575 61.2581C196.35 61.0077 196.064 60.8143 195.716 60.6777C195.379 60.5412 194.907 60.3932 194.301 60.2339C193.537 60.0291 192.914 59.8243 192.43 59.6194C191.959 59.4032 191.555 59.0732 191.217 58.6294C190.88 58.1856 190.713 57.5939 190.713 56.8543C190.713 56.1715 190.88 55.5741 191.217 55.062C191.555 54.55 192.027 54.1574 192.632 53.8843C193.239 53.6112 193.942 53.4746 194.738 53.4746C195.873 53.4746 196.8 53.7648 197.518 54.3451C198.249 54.9141 198.652 55.6993 198.731 56.7006H196.609C196.575 56.2682 196.373 55.8984 196.002 55.5912C195.631 55.2839 195.143 55.1303 194.536 55.1303C193.986 55.1303 193.537 55.2725 193.188 55.557C192.841 55.8415 192.666 56.2512 192.666 56.786C192.666 57.1501 192.773 57.4517 192.987 57.6906C193.212 57.9182 193.492 58.1003 193.829 58.2369C194.166 58.3734 194.627 58.5213 195.21 58.6806C195.985 58.8969 196.614 59.1131 197.098 59.3293C197.592 59.5455 198.007 59.8812 198.344 60.3363C198.692 60.7801 198.866 61.3775 198.866 62.1286C198.866 62.7317 198.703 63.3006 198.378 63.8355C198.063 64.3703 197.598 64.8027 196.979 65.1327C196.373 65.4513 195.655 65.6106 194.823 65.6106Z" fill="black"/>
<path d="M4.6938 0C5.98864 0 7.09465 0.457585 8.01183 1.37275C8.94699 2.28792 9.41457 3.39669 9.41457 4.69904C9.41457 5.9838 8.95599 7.08377 8.0388 7.99894C7.12163 8.8965 6.0246 9.34529 4.74776 9.34529C3.43493 9.34529 2.31093 8.88771 1.37577 7.97254C0.458589 7.03976 0 5.91341 0 4.59345C0 3.32629 0.458589 2.24393 1.37577 1.34635C2.29295 0.448785 3.39895 0 4.6938 0ZM0.998107 11.8269H8.38949V40.549H0.998107V11.8269Z" fill="#C32026"/>
<path d="M13.8117 11.8267H36.3366L23.1183 34.4507H35.5813V40.5488H11.7886L25.0607 17.9248H13.8117V11.8267Z" fill="#C32026"/>
<path d="M40.4368 11.8266H47.8282V15.1265C49.087 13.7713 50.4807 12.7594 52.0093 12.0906C53.556 11.4217 55.2375 11.0874 57.0539 11.0874C58.8882 11.0874 60.5427 11.5273 62.0175 12.4073C63.4921 13.2874 64.679 14.5721 65.5783 16.2616C66.7472 14.5721 68.1769 13.2874 69.8673 12.4073C71.5758 11.5273 73.4372 11.0874 75.4514 11.0874C77.5375 11.0874 79.3719 11.5626 80.9544 12.5129C82.537 13.4633 83.67 14.7041 84.3534 16.2352C85.0548 17.7664 85.4055 20.2566 85.4055 23.7062V40.5488H77.9871V25.9766C77.9871 22.7206 77.5735 20.5206 76.7462 19.3767C75.919 18.2152 74.678 17.6344 73.0235 17.6344C71.7647 17.6344 70.6317 17.9864 69.6246 18.6904C68.6355 19.3943 67.8982 20.3711 67.4126 21.6207C66.927 22.8526 66.6842 24.8414 66.6842 27.5869V40.5488H59.2658V26.6365C59.2658 24.067 59.068 22.2102 58.6723 21.0663C58.2948 19.9047 57.7192 19.0424 56.946 18.4792C56.1726 17.916 55.2375 17.6344 54.1405 17.6344C52.9176 17.6344 51.8026 17.9951 50.7955 18.7168C49.8063 19.4207 49.06 20.415 48.5564 21.6999C48.0708 22.9846 47.8282 25.0085 47.8282 27.7717V40.5488H40.4368V11.8266Z" fill="#C32026"/>
<path d="M106.231 11.0874C109 11.0874 111.599 11.7649 114.027 13.1201C116.473 14.4753 118.379 16.3144 119.745 18.6376C121.113 20.9607 121.796 23.4686 121.796 26.1613C121.796 28.8716 121.103 31.406 119.718 33.7642C118.352 36.1226 116.481 37.9705 114.108 39.3081C111.734 40.628 109.117 41.288 106.258 41.288C102.049 41.288 98.4527 39.8272 95.4674 36.9057C92.5001 33.9667 91.0164 30.4028 91.0164 26.2141C91.0164 21.7263 92.6979 17.9864 96.0609 14.9945C99.0102 12.3898 102.4 11.0874 106.231 11.0874ZM106.339 17.872C104.055 17.872 102.148 18.6551 100.62 20.2215C99.1092 21.7702 98.3538 23.759 98.3538 26.1877C98.3538 28.6868 99.1002 30.7107 100.593 32.2595C102.103 33.8083 104.01 34.5826 106.312 34.5826C108.614 34.5826 110.529 33.7995 112.058 32.2331C113.586 30.6668 114.351 28.6516 114.351 26.1877C114.351 23.7238 113.595 21.7263 112.084 20.1951C110.592 18.6464 108.677 17.872 106.339 17.872Z" fill="#C32026"/>
<path d="M125.627 1.71582H133.396L143.377 29.303L153.493 1.71582H161.262L146.964 40.5489H139.682L125.627 1.71582Z" fill="black"/>
<path d="M167.358 1.71582H174.587L191.609 27.2702V1.71582H199.163V40.5489H191.906L174.912 15.0738V40.5489H167.358V1.71582Z" fill="black"/>
</g>
<defs>
<clipPath id="clip0_270_3217">
<rect width="200" height="66" fill="white"/>
</clipPath>
</defs>
</svg>
