<svg width="32" height="32" viewBox="0 0 32 32" fill="none" xmlns="http://www.w3.org/2000/svg">
<path d="M6.66675 13.3332H9.33341C12.0001 13.3332 13.3334 11.9998 13.3334 9.33317V6.6665C13.3334 3.99984 12.0001 2.6665 9.33341 2.6665H6.66675C4.00008 2.6665 2.66675 3.99984 2.66675 6.6665V9.33317C2.66675 11.9998 4.00008 13.3332 6.66675 13.3332Z" stroke="#555555" stroke-width="2.125" stroke-miterlimit="10" stroke-linecap="round" stroke-linejoin="round"/>
<path d="M22.6667 13.3332H25.3334C28.0001 13.3332 29.3334 11.9998 29.3334 9.33317V6.6665C29.3334 3.99984 28.0001 2.6665 25.3334 2.6665H22.6667C20.0001 2.6665 18.6667 3.99984 18.6667 6.6665V9.33317C18.6667 11.9998 20.0001 13.3332 22.6667 13.3332Z" stroke="#555555" stroke-width="2.125" stroke-miterlimit="10" stroke-linecap="round" stroke-linejoin="round"/>
<path d="M22.6667 29.3332H25.3334C28.0001 29.3332 29.3334 27.9998 29.3334 25.3332V22.6665C29.3334 19.9998 28.0001 18.6665 25.3334 18.6665H22.6667C20.0001 18.6665 18.6667 19.9998 18.6667 22.6665V25.3332C18.6667 27.9998 20.0001 29.3332 22.6667 29.3332Z" stroke="#555555" stroke-width="2.125" stroke-miterlimit="10" stroke-linecap="round" stroke-linejoin="round"/>
<path d="M6.66675 29.3332H9.33341C12.0001 29.3332 13.3334 27.9998 13.3334 25.3332V22.6665C13.3334 19.9998 12.0001 18.6665 9.33341 18.6665H6.66675C4.00008 18.6665 2.66675 19.9998 2.66675 22.6665V25.3332C2.66675 27.9998 4.00008 29.3332 6.66675 29.3332Z" stroke="#555555" stroke-width="2.125" stroke-miterlimit="10" stroke-linecap="round" stroke-linejoin="round"/>
</svg>
