<svg width="32" height="32" viewBox="0 0 32 32" fill="none" xmlns="http://www.w3.org/2000/svg">
<path d="M4 29.333H28" stroke="#555555" stroke-width="2" stroke-linecap="round" stroke-linejoin="round"/>
<path d="M7.46663 11.1738H5.33333C4.6 11.1738 4 11.7738 4 12.5072V24.0005C4 24.7338 4.6 25.3338 5.33333 25.3338H7.46663C8.19997 25.3338 8.79997 24.7338 8.79997 24.0005V12.5072C8.79997 11.7738 8.19997 11.1738 7.46663 11.1738Z" stroke="#555555" stroke-width="2" stroke-linecap="round" stroke-linejoin="round"/>
<path d="M17.0667 6.91992H14.9334C14.2001 6.91992 13.6001 7.51992 13.6001 8.25326V23.9999C13.6001 24.7333 14.2001 25.3333 14.9334 25.3333H17.0667C17.8001 25.3333 18.4001 24.7333 18.4001 23.9999V8.25326C18.4001 7.51992 17.8001 6.91992 17.0667 6.91992Z" stroke="#555555" stroke-width="2" stroke-linecap="round" stroke-linejoin="round"/>
<path d="M26.6666 2.66699H24.5333C23.8 2.66699 23.2 3.26699 23.2 4.00033V24.0003C23.2 24.7337 23.8 25.3337 24.5333 25.3337H26.6666C27.3999 25.3337 27.9999 24.7337 27.9999 24.0003V4.00033C27.9999 3.26699 27.3999 2.66699 26.6666 2.66699Z" stroke="#555555" stroke-width="2" stroke-linecap="round" stroke-linejoin="round"/>
</svg>
