<svg width="32" height="32" viewBox="0 0 32 32" fill="none" xmlns="http://www.w3.org/2000/svg">
<path d="M4.22681 9.91992L16.0001 16.7332L27.6934 9.95988" stroke="#555555" stroke-width="2" stroke-linecap="round" stroke-linejoin="round"/>
<path d="M16 28.8131V16.7197" stroke="#555555" stroke-width="2" stroke-linecap="round" stroke-linejoin="round"/>
<path d="M13.2401 3.30699L6.12008 7.26703C4.50674 8.16037 3.18677 10.4003 3.18677 12.2403V19.7737C3.18677 21.6137 4.50674 23.8537 6.12008 24.747L13.2401 28.7071C14.7601 29.5471 17.2534 29.5471 18.7734 28.7071L25.8934 24.747C27.5068 23.8537 28.8267 21.6137 28.8267 19.7737V12.2403C28.8267 10.4003 27.5068 8.16037 25.8934 7.26703L18.7734 3.30699C17.2401 2.45366 14.7601 2.45366 13.2401 3.30699Z" stroke="#555555" stroke-width="2" stroke-linecap="round" stroke-linejoin="round"/>
<path d="M22.6667 17.6535V12.7735L10.0134 5.4668" stroke="#555555" stroke-width="2" stroke-linecap="round" stroke-linejoin="round"/>
</svg>
