<svg width="32" height="32" viewBox="0 0 32 32" fill="none" xmlns="http://www.w3.org/2000/svg">
<path d="M29.3334 17.3337V12.0003C29.3334 5.33366 26.6667 2.66699 20.0001 2.66699H12.0001C5.33341 2.66699 2.66675 5.33366 2.66675 12.0003V20.0003C2.66675 26.667 5.33341 29.3337 12.0001 29.3337H17.3334" stroke="#555555" stroke-width="2" stroke-linecap="round" stroke-linejoin="round"/>
<path d="M9.77319 19.3197L12.9465 15.1997C13.3999 14.613 14.2399 14.5064 14.8265 14.9597L17.2666 16.8797C17.8532 17.333 18.6932 17.2264 19.1465 16.653L22.2266 12.6797" stroke="#555555" stroke-width="2" stroke-linecap="round" stroke-linejoin="round"/>
<path d="M26.913 24.4935L26.603 25.1743H22.3618L22.6143 24.4935H26.913ZM26.3217 25.8135L25.9925 26.5038H22.3618L22.6143 25.8135H26.3217ZM27.7184 22.7517L27.2709 23.7041C27.1687 23.6231 27.0525 23.5443 26.9226 23.4676C26.7926 23.3909 26.6488 23.327 26.4911 23.2758C26.3334 23.2247 26.1608 23.1991 25.9733 23.1991C25.6559 23.1991 25.3757 23.2833 25.1328 23.4516C24.8899 23.6178 24.6992 23.8714 24.5607 24.2123C24.4243 24.551 24.3562 24.9804 24.3562 25.5003C24.3562 26.0202 24.4243 26.4495 24.5607 26.7883C24.6992 27.127 24.8899 27.3785 25.1328 27.5425C25.3757 27.7066 25.6559 27.7886 25.9733 27.7886C26.1608 27.7886 26.3334 27.7641 26.4911 27.7151C26.6488 27.6661 26.7905 27.6043 26.9162 27.5297C27.044 27.4552 27.1537 27.3806 27.2454 27.306L27.6992 28.2584C27.4712 28.4566 27.2081 28.6057 26.9098 28.7059C26.6136 28.806 26.3015 28.8561 25.9733 28.8561C25.4279 28.8561 24.9442 28.7229 24.5224 28.4566C24.1026 28.1881 23.7734 27.8035 23.5348 27.3028C23.2961 26.8 23.1768 26.1991 23.1768 25.5003C23.1768 24.7993 23.2961 24.1974 23.5348 23.6945C23.7734 23.1917 24.1026 22.806 24.5224 22.5376C24.9442 22.267 25.4279 22.1317 25.9733 22.1317C26.3143 22.1317 26.6307 22.186 26.9226 22.2947C27.2166 22.4012 27.4819 22.5535 27.7184 22.7517Z" fill="#555555"/>
<path d="M25.3333 30.6667C28.2789 30.6667 30.6667 28.2789 30.6667 25.3333C30.6667 22.3878 28.2789 20 25.3333 20C22.3878 20 20 22.3878 20 25.3333C20 28.2789 22.3878 30.6667 25.3333 30.6667Z" stroke="#555555" stroke-width="1.33333" stroke-linecap="round" stroke-linejoin="round"/>
</svg>
