<svg width="32" height="32" viewBox="0 0 32 32" fill="none" xmlns="http://www.w3.org/2000/svg">
<path d="M19.5745 14.0295L18.8512 15.6179H8.95521L9.54434 14.0295H19.5745ZM18.1949 17.1094L17.4268 18.7202H8.95521L9.54434 17.1094H18.1949ZM21.4538 9.9652L20.4098 12.1875C20.1711 11.9986 19.9002 11.8146 19.5969 11.6357C19.2936 11.4567 18.9581 11.3075 18.5902 11.1882C18.2223 11.0689 17.8196 11.0092 17.3821 11.0092C16.6413 11.0092 15.9875 11.2056 15.4208 11.5984C14.854 11.9862 14.409 12.5778 14.0859 13.3732C13.7677 14.1637 13.6086 15.1655 13.6086 16.3786C13.6086 17.5916 13.7677 18.5934 14.0859 19.3839C14.409 20.1744 14.854 20.761 15.4208 21.1438C15.9875 21.5266 16.6413 21.718 17.3821 21.718C17.8196 21.718 18.2223 21.6609 18.5902 21.5465C18.9581 21.4322 19.2887 21.288 19.582 21.114C19.8803 20.94 20.1363 20.766 20.3501 20.592L21.409 22.8143C20.8771 23.2766 20.2631 23.6246 19.5671 23.8583C18.876 24.092 18.1477 24.2088 17.3821 24.2088C16.1093 24.2088 14.9808 23.8981 13.9964 23.2766C13.017 22.6502 12.2489 21.7528 11.6921 20.5845C11.1353 19.4112 10.8568 18.0092 10.8568 16.3786C10.8568 14.7429 11.1353 13.3384 11.6921 12.1651C12.2489 10.9918 13.017 10.092 13.9964 9.46555C14.9808 8.83416 16.1093 8.51847 17.3821 8.51847C18.1775 8.51847 18.9158 8.64524 19.5969 8.89879C20.283 9.14737 20.9019 9.50284 21.4538 9.9652Z" fill="#555555"/>
<path d="M16.0001 29.3337C23.3639 29.3337 29.3334 23.3641 29.3334 16.0003C29.3334 8.63653 23.3639 2.66699 16.0001 2.66699C8.63628 2.66699 2.66675 8.63653 2.66675 16.0003C2.66675 23.3641 8.63628 29.3337 16.0001 29.3337Z" stroke="#555555" stroke-width="2" stroke-linecap="round" stroke-linejoin="round"/>
<path d="M26.7016 29.6656L27.6661 30.6999" stroke="#555555" stroke-width="1.6" stroke-linecap="round" stroke-linejoin="round"/>
<path d="M2.70165 2.99866L3.66614 4.03295" stroke="#555555" stroke-width="1.6" stroke-linecap="round" stroke-linejoin="round"/>
<path d="M30.6949 4.13917L29.5654 4.99027" stroke="#555555" stroke-width="1.6" stroke-linecap="round" stroke-linejoin="round"/>
<path d="M2.56187 26.7541L1.47852 27.6632" stroke="#555555" stroke-width="1.6" stroke-linecap="round" stroke-linejoin="round"/>
</svg>
