<svg width="34" height="34" viewBox="0 0 34 34" fill="none" xmlns="http://www.w3.org/2000/svg">
<g clip-path="url(#clip0_1003_4863)">
<mask id="path-1-inside-1_1003_4863" fill="white">
<path d="M4.81397 30.983L4.74341 27.251L8.51413 27.4279"/>
</mask>
<path d="M3.67964 31.0045C3.69148 31.631 4.20894 32.1292 4.83542 32.1174C5.46189 32.1055 5.96015 31.5881 5.9483 30.9616L3.67964 31.0045ZM4.74341 27.251L4.79657 26.1177C4.48307 26.103 4.17748 26.2188 3.95247 26.4376C3.72746 26.6564 3.60314 26.9586 3.60907 27.2724L4.74341 27.251ZM8.46096 28.5612C9.08686 28.5905 9.61806 28.1069 9.64742 27.481C9.67678 26.8551 9.19319 26.3239 8.56729 26.2946L8.46096 28.5612ZM4.81397 30.983L5.9483 30.9616L5.87774 27.2295L4.74341 27.251L3.60907 27.2724L3.67964 31.0045L4.81397 30.983ZM4.74341 27.251L4.69024 28.3843L8.46096 28.5612L8.51413 27.4279L8.56729 26.2946L4.79657 26.1177L4.74341 27.251Z" fill="#E00034" mask="url(#path-1-inside-1_1003_4863)"/>
<mask id="path-3-inside-2_1003_4863" fill="white">
<path d="M29.0283 2.86035L29.0988 6.59144L25.3271 6.41455"/>
</mask>
<path d="M30.1626 2.8389C30.1508 2.21242 29.6333 1.71417 29.0068 1.72602C28.3803 1.73787 27.8821 2.25533 27.8939 2.8818L30.1626 2.8389ZM29.0988 6.59144L29.0457 7.72473C29.3592 7.73943 29.6648 7.62361 29.8898 7.40481C30.1148 7.18601 30.2391 6.88378 30.2332 6.56999L29.0988 6.59144ZM25.3803 5.28126C24.7544 5.2519 24.2232 5.7355 24.1939 6.3614C24.1645 6.9873 24.6481 7.51849 25.274 7.54784L25.3803 5.28126ZM29.0283 2.86035L27.8939 2.8818L27.9645 6.61289L29.0988 6.59144L30.2332 6.56999L30.1626 2.8389L29.0283 2.86035ZM29.0988 6.59144L29.152 5.45815L25.3803 5.28126L25.3271 6.41455L25.274 7.54784L29.0457 7.72473L29.0988 6.59144Z" fill="#E00034" mask="url(#path-3-inside-2_1003_4863)"/>
<path d="M16.6045 7.66699C16.802 7.55412 17.0459 7.55345 17.2451 7.66699L24.5977 11.8604C24.6721 11.9027 24.7188 11.9817 24.7188 12.0674V20.6631C24.7187 20.7269 24.6927 20.7879 24.6484 20.832L24.5977 20.8701L17.2451 25.0635H17.2441C17.0468 25.1762 16.8036 25.1768 16.6045 25.0635L9.25098 20.8701C9.17654 20.8277 9.13086 20.7488 9.13086 20.6631V12.0674C9.13086 11.9823 9.17693 11.9025 9.25098 11.8604L16.6045 7.66699Z" stroke="#E00034" stroke-width="1.13454" stroke-linecap="round" stroke-linejoin="round"/>
<mask id="path-6-inside-3_1003_4863" fill="white">
<path d="M23.2239 12.7754L16.9246 16.3673L10.6243 12.7754"/>
</mask>
<path d="M23.7859 13.761C24.3302 13.4506 24.5199 12.7577 24.2095 12.2134C23.8991 11.6691 23.2063 11.4794 22.662 11.7898L23.7859 13.761ZM16.9246 16.3673L16.3627 17.3529C16.711 17.5515 17.1383 17.5515 17.4866 17.3529L16.9246 16.3673ZM11.1862 11.7898C10.6418 11.4794 9.94899 11.6691 9.63866 12.2135C9.32832 12.7578 9.51802 13.4507 10.0624 13.761L11.1862 11.7898ZM23.2239 12.7754L22.662 11.7898L16.3626 15.3817L16.9246 16.3673L17.4866 17.3529L23.7859 13.761L23.2239 12.7754ZM16.9246 16.3673L17.4865 15.3817L11.1862 11.7898L10.6243 12.7754L10.0624 13.761L16.3627 17.3529L16.9246 16.3673Z" fill="#E00034" mask="url(#path-6-inside-3_1003_4863)"/>
<path d="M16.9246 16.3672V23.6351" stroke="#E00034" stroke-width="1.13454" stroke-linecap="round" stroke-linejoin="round"/>
<mask id="path-9-inside-4_1003_4863" fill="white">
<path d="M31.0642 9.48828C31.1918 9.7309 31.3127 9.97642 31.4277 10.2239C34.1545 16.1269 33.0854 23.3513 28.2186 28.2181C21.982 34.4547 11.8694 34.4547 5.63292 28.2181C5.3207 27.9059 5.02299 27.5831 4.74268 27.2525"/>
</mask>
<path d="M32.0684 8.9602C31.7767 8.40563 31.0907 8.19249 30.5362 8.48414C29.9816 8.77578 29.7684 9.46178 30.0601 10.0164L32.0684 8.9602ZM31.4277 10.2239L32.4576 9.7481L32.4565 9.74563L31.4277 10.2239ZM5.608 26.5188C5.20276 26.0409 4.48683 25.9819 4.00892 26.3872C3.53102 26.7924 3.47211 27.5084 3.87735 27.9863L5.608 26.5188ZM31.0642 9.48828L30.0601 10.0164C30.1783 10.2411 30.2909 10.4699 30.3989 10.7021L31.4277 10.2239L32.4565 9.74563C32.3344 9.48295 32.2054 9.2207 32.0684 8.9602L31.0642 9.48828ZM31.4277 10.2239L30.3977 10.6996C32.9316 16.185 31.9362 22.896 27.4163 27.4159L28.2186 28.2181L29.0208 29.0204C34.2346 23.8066 35.3774 16.0688 32.4576 9.7481L31.4277 10.2239ZM28.2186 28.2181L27.4163 27.4159C21.6229 33.2094 12.2286 33.2094 6.43516 27.4159L5.63292 28.2181L4.83068 29.0204C11.5103 35.7 22.3412 35.7 29.0208 29.0204L28.2186 28.2181ZM5.63292 28.2181L6.43516 27.4159C6.14439 27.1251 5.86777 26.8251 5.608 26.5188L4.74268 27.2525L3.87735 27.9863C4.17821 28.3411 4.49702 28.6867 4.83068 29.0204L5.63292 28.2181Z" fill="#E00034" mask="url(#path-9-inside-4_1003_4863)"/>
<mask id="path-11-inside-5_1003_4863" fill="white">
<path d="M2.78118 24.3517C2.65359 24.1091 2.53276 23.8636 2.41871 23.6161C-0.302281 17.714 0.768714 10.4954 5.63169 5.63149C11.8682 -0.605029 21.9808 -0.605029 28.2173 5.63149C28.5276 5.94177 28.8215 6.26075 29.1008 6.58843"/>
</mask>
<path d="M1.77704 24.8798C2.06868 25.4343 2.75468 25.6475 3.30926 25.3558C3.86383 25.0642 4.07698 24.3782 3.78533 23.8236L1.77704 24.8798ZM2.41871 23.6161L3.44905 23.1412L3.44902 23.1411L2.41871 23.6161ZM5.63169 5.63149L4.82946 4.82925L4.82938 4.82933L5.63169 5.63149ZM28.2374 7.32447C28.6439 7.8013 29.36 7.85831 29.8369 7.45181C30.3137 7.04531 30.3707 6.32922 29.9642 5.85239L28.2374 7.32447ZM2.78118 24.3517L3.78533 23.8236C3.66715 23.5989 3.55504 23.3711 3.44905 23.1412L2.41871 23.6161L1.38836 24.091C1.51049 24.356 1.64003 24.6192 1.77704 24.8798L2.78118 24.3517ZM2.41871 23.6161L3.44902 23.1411C0.920511 17.6565 1.91769 10.9509 6.43401 6.43365L5.63169 5.63149L4.82938 4.82933C-0.380265 10.04 -1.52507 17.7715 1.38839 24.0911L2.41871 23.6161ZM5.63169 5.63149L6.43393 6.43373C12.2274 0.640274 21.6216 0.640274 27.4151 6.43373L28.2173 5.63149L29.0196 4.82925C22.34 -1.85033 11.509 -1.85033 4.82946 4.82925L5.63169 5.63149ZM28.2173 5.63149L27.4151 6.43373C27.7037 6.72229 27.9771 7.01915 28.2374 7.32447L29.1008 6.58843L29.9642 5.85239C29.6658 5.50236 29.3516 5.16125 29.0196 4.82925L28.2173 5.63149Z" fill="#E00034" mask="url(#path-11-inside-5_1003_4863)"/>
</g>
<defs>
<clipPath id="clip0_1003_4863">
<rect width="32.85" height="32.85" fill="white" transform="translate(0.5 0.5)"/>
</clipPath>
</defs>
</svg>
