<svg width="69" height="56" viewBox="0 0 69 56" fill="none" xmlns="http://www.w3.org/2000/svg">
<path d="M68.9616 18.7639C68.9616 17.2449 67.7365 16.0103 66.2345 16.0103H62.834C62.7425 16.0103 62.6486 16.0151 62.5547 16.0269L58.0465 4.9464C56.9082 2.15021 53.9325 0.273438 50.6399 0.273438H18.892C15.5994 0.273438 12.6213 2.15258 11.4854 4.9464L6.93724 16.1241C6.85745 16.117 6.77767 16.1122 6.69788 16.1122H3.29733C1.79301 16.1122 0.570312 17.3492 0.570312 18.8658C0.570312 20.3824 1.79536 21.6217 3.29733 21.6217H4.52941C3.22692 22.8136 2.48767 24.4819 2.48767 26.271V42.4415C2.48767 43.6477 2.93591 44.7969 3.75026 45.6784C4.4637 46.451 5.40008 46.9557 6.42095 47.1263V51.8656C6.42095 53.9936 8.13648 55.7258 10.2439 55.7258H13.5436C15.651 55.7258 17.3665 53.9936 17.3665 51.8656V47.195H52.1606V51.8656C52.1606 53.9936 53.8762 55.7258 55.9836 55.7258H59.2832C61.3907 55.7258 63.1062 53.9936 63.1062 51.8656V47.1263C64.1271 46.9557 65.0635 46.451 65.7769 45.6784C66.5913 44.7969 67.0395 43.6477 67.0395 42.4415V26.271C67.0395 24.4321 66.258 22.7165 64.8851 21.5198H66.2299C67.7342 21.5198 68.9569 20.2828 68.9569 18.7662L68.9616 18.7639ZM12.8583 38.7045C10.7767 38.7045 9.0846 36.996 9.0846 34.8941C9.0846 32.7922 10.7767 31.0837 12.8583 31.0837C14.9399 31.0837 16.632 32.7922 16.632 34.8941C16.632 36.996 14.9399 38.7045 12.8583 38.7045ZM45.1225 37.3491H24.4047C23.3862 37.3491 22.2151 36.9676 22.2151 33.9866C22.2151 33.1359 22.9004 32.4415 23.7452 32.4415H45.7819C46.6245 32.4415 47.3121 33.1359 47.3121 33.9866C47.3121 36.9676 46.141 37.3491 45.1225 37.3491ZM10.7743 18.1573L15.4774 6.60043C15.9561 5.42034 17.329 4.62887 18.892 4.62887H50.6399C52.2029 4.62887 53.5758 5.42034 54.0545 6.60043L58.7576 18.1573H10.7743ZM56.6712 38.7045C54.5919 38.7045 52.8975 36.996 52.8975 34.8941C52.8975 32.7922 54.5896 31.0837 56.6712 31.0837C58.7529 31.0837 60.4449 32.7922 60.4449 34.8941C60.4449 36.996 58.7529 38.7045 56.6712 38.7045Z" fill="#13B103"/>
</svg>
