<svg width="35" height="35" viewBox="0 0 35 35" fill="none" xmlns="http://www.w3.org/2000/svg">
<g clip-path="url(#clip0_1173_2866)">
<path d="M16.6123 17.4087L25.5542 8.4668" stroke="#E00034" stroke-width="0.862087" stroke-miterlimit="10" stroke-linecap="round" stroke-linejoin="round"/>
<path d="M16.6123 3.44531C18.821 3.44531 20.9078 3.95683 22.7633 4.87071C22.9067 4.94134 23.0501 5.01411 23.1914 5.09115" stroke="#E00034" stroke-width="0.862087" stroke-miterlimit="10" stroke-linecap="round" stroke-linejoin="round"/>
<path d="M2.65137 17.4085C2.65137 10.4506 7.74085 4.68265 14.3991 3.62109" stroke="#E00034" stroke-width="0.862087" stroke-miterlimit="10" stroke-linecap="round" stroke-linejoin="round"/>
<path d="M16.6126 31.3689C9.65469 31.3689 3.88675 26.2794 2.8252 19.6211" stroke="#E00034" stroke-width="0.862087" stroke-miterlimit="10" stroke-linecap="round" stroke-linejoin="round"/>
<path d="M30.5759 17.4082C30.5759 24.3661 25.4864 30.1341 18.8281 31.1956" stroke="#E00034" stroke-width="0.862087" stroke-miterlimit="10" stroke-linecap="round" stroke-linejoin="round"/>
<path d="M28.96 10.8828C29.662 12.2076 30.1564 13.6587 30.4003 15.1932" stroke="#E00034" stroke-width="0.862087" stroke-miterlimit="10" stroke-linecap="round" stroke-linejoin="round"/>
<path d="M24.2982 12.8309C25.0965 14.1707 25.5567 15.7352 25.5567 17.4068C25.5567 22.3443 21.5523 26.3487 16.6148 26.3487C11.6751 26.3487 7.67285 22.3443 7.67285 17.4068C7.67285 12.4671 11.6772 8.46484 16.6148 8.46484C18.2948 8.46484 19.8658 8.92713 21.2098 9.734" stroke="#E00034" stroke-width="0.862087" stroke-miterlimit="10" stroke-linecap="round" stroke-linejoin="round"/>
<path d="M20.4696 16.642C20.5188 16.8902 20.5445 17.1449 20.5445 17.406C20.5445 19.5762 18.7852 21.3355 16.615 21.3355C14.4448 21.3355 12.6855 19.5762 12.6855 17.406C12.6855 15.2358 14.4448 13.4766 16.615 13.4766C16.874 13.4766 17.1287 13.5022 17.3748 13.5493" stroke="#E00034" stroke-width="0.862087" stroke-miterlimit="10" stroke-linecap="round" stroke-linejoin="round"/>
<path d="M29.7731 0L25.5547 4.21841V8.46892H29.8073L34.0236 4.25265H29.7731V0Z" stroke="#E00034" stroke-width="0.862087" stroke-miterlimit="10" stroke-linecap="round" stroke-linejoin="round"/>
<path d="M16.6123 5.19195V0.795898" stroke="#E00034" stroke-width="0.862087" stroke-miterlimit="10" stroke-linecap="round" stroke-linejoin="round"/>
<path d="M4.39819 17.4082H0" stroke="#E00034" stroke-width="0.862087" stroke-miterlimit="10" stroke-linecap="round" stroke-linejoin="round"/>
<path d="M16.6123 29.625V34.021" stroke="#E00034" stroke-width="0.862087" stroke-miterlimit="10" stroke-linecap="round" stroke-linejoin="round"/>
<path d="M28.8291 17.4082H33.2251" stroke="#E00034" stroke-width="0.862087" stroke-miterlimit="10" stroke-linecap="round" stroke-linejoin="round"/>
</g>
<defs>
<clipPath id="clip0_1173_2866">
<rect width="33.9842" height="33.98" fill="white" transform="translate(0.507812 0.5)"/>
</clipPath>
</defs>
</svg>
