<svg width="35" height="25" viewBox="0 0 35 25" fill="none" xmlns="http://www.w3.org/2000/svg">
<g clip-path="url(#clip0_1111_2155)">
<path d="M0.813477 15.4902H6.62904" stroke="#E00034" stroke-width="1.30435" stroke-miterlimit="10" stroke-linecap="round" stroke-linejoin="round"/>
<path d="M2.62842 12.0801H8.44398" stroke="#E00034" stroke-width="1.30435" stroke-miterlimit="10" stroke-linecap="round" stroke-linejoin="round"/>
<path d="M0.813477 8.66895H6.62904" stroke="#E00034" stroke-width="1.30435" stroke-miterlimit="10" stroke-linecap="round" stroke-linejoin="round"/>
<path d="M2.62842 5.25879H8.44398" stroke="#E00034" stroke-width="1.30435" stroke-miterlimit="10" stroke-linecap="round" stroke-linejoin="round"/>
<path d="M30.3806 21.6871C30.857 19.6694 29.6075 17.6474 27.5898 17.171C25.572 16.6945 23.5501 17.944 23.0736 19.9618C22.5972 21.9795 23.8467 24.0015 25.8644 24.4779C27.8822 24.9544 29.9041 23.7049 30.3806 21.6871Z" stroke="#E00034" stroke-width="1.30435" stroke-miterlimit="10" stroke-linecap="round" stroke-linejoin="round"/>
<path d="M28.0215 20.8225C28.0215 21.5374 27.442 22.1177 26.7263 22.1177C26.0114 22.1177 25.4312 21.5382 25.4312 20.8225C25.4312 20.1076 26.0106 19.5273 26.7263 19.5273" stroke="#E00034" stroke-width="1.30435" stroke-miterlimit="10" stroke-linecap="round" stroke-linejoin="round"/>
<path d="M13.1055 20.8225C13.1055 21.5374 12.526 22.1177 11.8103 22.1177C11.0954 22.1177 10.5151 21.5382 10.5151 20.8225C10.5151 20.1076 11.0946 19.5273 11.8103 19.5273" stroke="#E00034" stroke-width="1.30435" stroke-miterlimit="10" stroke-linecap="round" stroke-linejoin="round"/>
<path d="M15.4636 21.6862C15.94 19.6684 14.6905 17.6465 12.6728 17.17C10.655 16.6936 8.63308 17.943 8.15663 19.9608C7.68018 21.9785 8.92966 24.0005 10.9474 24.4769C12.9652 24.9534 14.9871 23.7039 15.4636 21.6862Z" stroke="#E00034" stroke-width="1.30435" stroke-miterlimit="10" stroke-linecap="round" stroke-linejoin="round"/>
<path d="M20.9394 20.3838H17.5991" stroke="#E00034" stroke-width="1.30435" stroke-miterlimit="10" stroke-linecap="round" stroke-linejoin="round"/>
<path d="M4.59033 17.4668V18.9089C4.59033 19.7233 5.25056 20.3827 6.06422 20.3827" stroke="#E00034" stroke-width="1.30435" stroke-miterlimit="10" stroke-linecap="round" stroke-linejoin="round"/>
<path d="M32.279 20.384H32.5695C33.3579 20.384 33.9969 19.745 33.9969 18.9566V12.9297C33.9969 11.3236 32.6878 10.0243 31.0809 10.0374L30.1677 10.0447L25.6261 2.80262C25.0565 1.89348 24.0592 1.3418 22.986 1.3418H6.05346C5.36956 1.3418 4.81543 1.89593 4.81543 2.57983V3.28086" stroke="#E00034" stroke-width="1.30435" stroke-miterlimit="10" stroke-linecap="round" stroke-linejoin="round"/>
<path d="M27.287 10.0448H19.9258V3.55762" stroke="#E00034" stroke-width="1.30435" stroke-miterlimit="10" stroke-linecap="round" stroke-linejoin="round"/>
</g>
<defs>
<clipPath id="clip0_1111_2155">
<rect width="33.9483" height="24" fill="white" transform="translate(0.430664 0.959961)"/>
</clipPath>
</defs>
</svg>
