<svg width="34" height="31" viewBox="0 0 34 31" fill="none" xmlns="http://www.w3.org/2000/svg">
<g clip-path="url(#clip0_1173_426)">
<path d="M4.71484 11.7979C5.62151 12.2763 6.39534 12.5419 7.58348 12.5419H9.94025" stroke="#E00034" stroke-width="1.30055" stroke-miterlimit="10" stroke-linecap="round" stroke-linejoin="round"/>
<path d="M2.87988 17.9189V20.716C2.87988 21.1267 3.21245 21.4592 3.62305 21.4592H8.08207C8.49267 21.4592 8.82524 21.1267 8.82524 20.716V18.4865" stroke="#E00034" stroke-width="1.30055" stroke-miterlimit="10" stroke-linecap="round" stroke-linejoin="round"/>
<path d="M30.2527 11.6102L28.1477 8.82522L31.2968 8.02074C31.6991 7.90183 31.8635 7.74856 31.8635 7.33888V5.85254C31.8635 5.44194 31.5309 5.10938 31.1203 5.10938H27.8021C27.5531 5.10938 27.3218 5.23386 27.1834 5.44009L26.2006 6.91435C26.0584 7.11129 25.423 8.08205 23.6886 8.08205H16.2569H8.82525C7.09088 8.08205 6.45547 7.11129 6.31334 6.91435L5.3305 5.44009C5.19208 5.23386 4.95984 5.10938 4.71181 5.10938H1.39356C0.982959 5.10938 0.650391 5.44194 0.650391 5.85254V7.33888C0.650391 7.74948 0.814817 7.90183 1.21706 8.02074L4.36624 8.82522L2.26121 11.6102C2.18039 11.7329 2.13673 12.1695 2.13673 12.5411V16.2569C2.13673 17.4887 3.13443 18.4864 4.36624 18.4864H17.0001" stroke="#E00034" stroke-width="1.30055" stroke-miterlimit="10" stroke-linecap="round" stroke-linejoin="round"/>
<path d="M26.5594 6.37744C26.5594 6.37744 25.2357 2.87433 24.8734 2.32252C24.5501 1.8311 24.1832 1.51618 23.231 1.26815C21.7604 0.886347 19.4622 0.650391 16.2573 0.650391C13.0523 0.650391 10.7541 0.886347 9.28355 1.26815C8.33136 1.51618 7.96442 1.8311 7.64114 2.32252C7.27885 2.87433 5.95508 6.37744 5.95508 6.37744" stroke="#E00034" stroke-width="1.30055" stroke-miterlimit="10" stroke-linecap="round" stroke-linejoin="round"/>
<path d="M18.1153 15.5137H16.2574H11.4268" stroke="#E00034" stroke-width="1.30055" stroke-miterlimit="10" stroke-linecap="round" stroke-linejoin="round"/>
<path d="M26.6612 26.6612C30.3552 26.6612 33.3497 23.6667 33.3497 19.9727C33.3497 16.2787 30.3552 13.2842 26.6612 13.2842C22.9672 13.2842 19.9727 16.2787 19.9727 19.9727C19.9727 23.6667 22.9672 26.6612 26.6612 26.6612Z" stroke="#E00034" stroke-width="1.30055" stroke-miterlimit="10" stroke-linecap="round" stroke-linejoin="round"/>
<path d="M23.1035 18.8956C23.4602 17.7139 24.3901 16.7812 25.5699 16.4189" stroke="#E00034" stroke-width="1.30055" stroke-miterlimit="10" stroke-linecap="round" stroke-linejoin="round"/>
<path d="M17 29.634L21.9328 24.7012" stroke="#E00034" stroke-width="1.30055" stroke-miterlimit="10" stroke-linecap="round" stroke-linejoin="round"/>
</g>
<defs>
<clipPath id="clip0_1173_426">
<rect width="34" height="30.2842" fill="white"/>
</clipPath>
</defs>
</svg>
