<svg width="69" height="66" viewBox="0 0 69 66" fill="none" xmlns="http://www.w3.org/2000/svg">
<path fill-rule="evenodd" clip-rule="evenodd" d="M46.1477 49.1428H46.1424C45.6317 50.2253 44.5459 50.9698 43.2934 50.9698L27.6889 50.9424C26.8181 50.9424 26.1139 51.6649 26.1139 52.5523C26.1139 53.4398 26.8207 54.1623 27.6889 54.1623H43.2934C45.7876 54.1623 47.9458 52.6732 48.9617 50.5192C48.9698 50.5 48.9886 50.4643 48.9886 50.4643L63.631 44.2551C63.631 44.2551 65.6226 43.3732 65.7113 43.3375C66.7433 42.9144 67.9447 43.2853 68.5709 44.2551C68.9257 44.8073 69.0466 45.4832 68.9015 46.1289C68.7591 46.7718 68.364 47.3295 67.8076 47.6702C62.2039 51.1045 41.0842 63.9102 40.8826 64.0201C40.0333 64.4927 37.3698 65.6246 32.9379 64.435C27.0116 62.8442 19.8893 60.3468 19.1716 60.0556C18.4997 59.7094 14.8418 58.028 10.8157 60.0803C8.31347 61.3551 0.570312 65.0587 0.570312 65.0587V45.9997C0.570312 45.9997 7.27604 43.7139 12.4632 41.9473C18.4944 39.8922 22.4076 39.3482 26.517 42.2687C28.0651 43.3677 30.1534 44.5079 33.6259 44.5079H43.2934C45.0377 44.5079 46.4541 45.9558 46.4541 47.7388C46.4541 48.2416 46.3412 48.7169 46.1397 49.1428H46.1477Z" fill="#0032B3"/>
<path fill-rule="evenodd" clip-rule="evenodd" d="M49.1206 44.9662C56.087 40.9165 60.7932 33.2594 60.7932 24.4841C60.7932 11.4888 50.4725 0.941406 37.7625 0.941406C25.0526 0.941406 14.7319 11.4915 14.7319 24.4841C14.7319 29.1026 16.0355 33.4105 18.285 37.0481C22.0585 36.5673 25.1681 37.246 28.3826 39.5291C29.5248 40.3396 31.0703 41.172 33.6316 41.172H43.2991C45.8739 41.172 48.0993 42.7243 49.1206 44.9662Z" fill="#0032B3"/>
<path d="M43.5911 20.4901L42.5604 22.7533H28.4605L29.2999 20.4901H43.5911ZM41.6254 24.8784L40.531 27.1735H28.4605L29.2999 24.8784H41.6254ZM46.2687 14.6993L44.7812 17.8656C44.4411 17.5965 44.0551 17.3344 43.623 17.0794C43.1909 16.8243 42.7127 16.6118 42.1886 16.4418C41.6644 16.2718 41.0906 16.1868 40.4672 16.1868C39.4118 16.1868 38.4803 16.4666 37.6728 17.0262C36.8652 17.5787 36.2312 18.4217 35.7708 19.5551C35.3174 20.6814 35.0908 22.1087 35.0908 23.8371C35.0908 25.5655 35.3174 26.9929 35.7708 28.1192C36.2312 29.2455 36.8652 30.0813 37.6728 30.6268C38.4803 31.1722 39.4118 31.4449 40.4672 31.4449C41.0906 31.4449 41.6644 31.3635 42.1886 31.2005C42.7127 31.0376 43.1838 30.8322 43.6017 30.5843C44.0267 30.3363 44.3916 30.0884 44.6961 29.8405L46.205 33.0068C45.447 33.6656 44.5722 34.1615 43.5805 34.4944C42.5959 34.8273 41.5581 34.9938 40.4672 34.9938C38.6538 34.9938 37.0459 34.5511 35.6433 33.6656C34.2478 32.7731 33.1534 31.4945 32.36 29.8298C31.5667 28.1581 31.17 26.1605 31.17 23.8371C31.17 21.5066 31.5667 19.5055 32.36 17.8338C33.1534 16.162 34.2478 14.8799 35.6433 13.9874C37.0459 13.0877 38.6538 12.6379 40.4672 12.6379C41.6006 12.6379 42.6525 12.8186 43.623 13.1798C44.6005 13.534 45.4824 14.0405 46.2687 14.6993Z" fill="white"/>
</svg>
