<svg width="35" height="35" viewBox="0 0 35 35" fill="none" xmlns="http://www.w3.org/2000/svg">
<g clip-path="url(#clip0_1173_2897)">
<path d="M21.5811 26.7969L27.8906 20.2344L23.5156 15.3125L32.8125 6.01562L34.4531 7.65625V0.546875H27.3438L28.9844 2.1875L16.4062 15.3125L20.2344 19.6875L6.01562 34.4531" stroke="#E00034" stroke-width="1.09375" stroke-miterlimit="10" stroke-linecap="round" stroke-linejoin="round"/>
<path d="M14.2188 34.4529L18.0469 30.4717" stroke="#E00034" stroke-width="1.09375" stroke-miterlimit="10" stroke-linecap="round" stroke-linejoin="round"/>
<path d="M15.8594 4.375C15.8594 4.375 13.125 4.92188 8.75 4.92188C6.01562 4.92188 2.1875 3.28125 0.546875 1.64062C4.375 2.73438 9.84375 0.546875 13.6719 0.546875C16.4062 0.546875 18.0578 1.20039 19.6984 2.84102" stroke="#E00034" stroke-width="1.09375" stroke-miterlimit="10" stroke-linecap="round" stroke-linejoin="round"/>
<path d="M9.29639 8.20312L1.04131 15.7937C0.387799 16.4322 0.380963 17.4822 1.02764 18.1275L3.72237 21.1449C4.13799 21.6098 4.73135 21.875 5.35342 21.875H10.4776C11.1161 21.875 11.7218 22.1539 12.1374 22.6379L14.612 25.5213" stroke="#E00034" stroke-width="1.09375" stroke-miterlimit="10" stroke-linecap="round" stroke-linejoin="round"/>
<path d="M18.5938 5.46875C18.5938 5.46875 19.1406 1.64062 22.9688 0.546875C22.9688 0.546875 25.1494 4.63887 22.9619 8.46699" stroke="#E00034" stroke-width="1.09375" stroke-miterlimit="10" stroke-linecap="round" stroke-linejoin="round"/>
<path d="M10.9375 12.0312L12.0312 10.9375" stroke="#E00034" stroke-width="1.09375" stroke-miterlimit="10" stroke-linecap="round" stroke-linejoin="round"/>
</g>
<defs>
<clipPath id="clip0_1173_2897">
<rect width="35" height="35" fill="white"/>
</clipPath>
</defs>
</svg>
