<svg width="30" height="34" viewBox="0 0 30 34" fill="none" xmlns="http://www.w3.org/2000/svg">
<g clip-path="url(#clip0_1173_2244)">
<path d="M0.820312 32.9844H10.6172C10.759 32.9844 10.875 32.8684 10.875 32.7266V29.6328C10.875 29.491 10.759 29.375 10.6172 29.375H0.820312C0.678516 29.375 0.5625 29.491 0.5625 29.6328V32.7266C0.5625 32.8684 0.678516 32.9844 0.820312 32.9844Z" stroke="#E00034" stroke-width="1.03125" stroke-miterlimit="10" stroke-linecap="round" stroke-linejoin="round"/>
<path d="M1.85156 29.375H11.6484C11.7902 29.375 11.9062 29.259 11.9062 29.1172V26.0234C11.9062 25.8816 11.7902 25.7656 11.6484 25.7656H1.85156C1.70977 25.7656 1.59375 25.8816 1.59375 26.0234V29.1172C1.59375 29.259 1.70977 29.375 1.85156 29.375Z" stroke="#E00034" stroke-width="1.03125" stroke-miterlimit="10" stroke-linecap="round" stroke-linejoin="round"/>
<path d="M0.820312 25.7656H10.6172C10.759 25.7656 10.875 25.6496 10.875 25.5078V22.4141C10.875 22.2723 10.759 22.1562 10.6172 22.1562H0.820312C0.678516 22.1562 0.5625 22.2723 0.5625 22.4141V25.5078C0.5625 25.6496 0.678516 25.7656 0.820312 25.7656Z" stroke="#E00034" stroke-width="1.03125" stroke-miterlimit="10" stroke-linecap="round" stroke-linejoin="round"/>
<path d="M25.5703 32.9844H15.7734C15.6316 32.9844 15.5156 32.8684 15.5156 32.7266V29.6328C15.5156 29.491 15.6316 29.375 15.7734 29.375H25.5703C25.7121 29.375 25.8281 29.491 25.8281 29.6328V32.7266C25.8281 32.8684 25.7121 32.9844 25.5703 32.9844Z" stroke="#E00034" stroke-width="1.03125" stroke-miterlimit="10" stroke-linecap="round" stroke-linejoin="round"/>
<path d="M26.6016 29.375H16.8047C16.6629 29.375 16.5469 29.259 16.5469 29.1172V26.0234C16.5469 25.8816 16.6629 25.7656 16.8047 25.7656H26.6016C26.7434 25.7656 26.8594 25.8816 26.8594 26.0234V29.1172C26.8594 29.259 26.7434 29.375 26.6016 29.375Z" stroke="#E00034" stroke-width="1.03125" stroke-miterlimit="10" stroke-linecap="round" stroke-linejoin="round"/>
<path d="M11.5621 18.5469H2.88281C2.74102 18.5469 2.625 18.4309 2.625 18.2891V15.1953C2.625 15.0535 2.74102 14.9375 2.88281 14.9375H11.3906H11.8212" stroke="#E00034" stroke-width="1.03125" stroke-miterlimit="10" stroke-linecap="round" stroke-linejoin="round"/>
<path d="M29.4375 10.8125H25.3125V1.01562H29.4375" stroke="#E00034" stroke-width="1.03125" stroke-miterlimit="10" stroke-linecap="round" stroke-linejoin="round"/>
<path d="M5.20312 14.9375V9.45125C5.20312 8.99621 5.35395 8.55406 5.63109 8.19313L9.58594 3.05363C10.0732 2.41812 10.8286 2.04688 11.6291 2.04688H25.3125" stroke="#E00034" stroke-width="1.03125" stroke-miterlimit="10" stroke-linecap="round" stroke-linejoin="round"/>
<path d="M8.8125 14.9375V10.8125L10.875 8.23438H13.9688C14.5385 8.23438 15 8.69586 15 9.26563V11.3281L11.2475 15.5872C10.5179 16.456 10.6327 17.7631 11.5015 18.4927C12.3703 19.2223 13.6774 19.1076 14.407 18.2388L18.6094 13.3906C20.0041 13.3906 22.2355 12.9717 23.4176 10.6243C23.678 10.1061 24.2116 9.78125 24.7917 9.78125H25.3125" stroke="#E00034" stroke-width="1.03125" stroke-miterlimit="10" stroke-linecap="round" stroke-linejoin="round"/>
</g>
<defs>
<clipPath id="clip0_1173_2244">
<rect width="29.9062" height="33" fill="white" transform="translate(0.046875 0.5)"/>
</clipPath>
</defs>
</svg>
