<svg width="32" height="37" viewBox="0 0 32 37" fill="none" xmlns="http://www.w3.org/2000/svg">
<g clip-path="url(#clip0_1111_5415)">
<path d="M20.1245 27.0634C20.3664 27.5561 20.9192 28.1471 22.1789 28.1471C24.3397 28.1471 24.3738 26.9263 24.3738 26.6389C24.3738 26.3516 24.403 25.0869 22.1789 24.7996C19.9549 24.5122 20.1278 23.3937 20.1278 23.1559C20.1278 22.9172 20.1911 21.625 22.1789 21.625C23.3356 21.625 23.8373 22.0974 24.054 22.4927" stroke="#E00034" stroke-width="1.2" stroke-miterlimit="10" stroke-linecap="round" stroke-linejoin="round"/>
<path d="M22.1797 28.1475V29.3431" stroke="#E00034" stroke-width="1.2" stroke-miterlimit="10" stroke-linecap="round" stroke-linejoin="round"/>
<path d="M22.1797 20.4443V21.6254" stroke="#E00034" stroke-width="1.2" stroke-miterlimit="10" stroke-linecap="round" stroke-linejoin="round"/>
<path d="M22.1678 32.0026C26.1742 32.0026 29.422 28.7548 29.422 24.7484C29.422 20.742 26.1742 17.4941 22.1678 17.4941C18.1614 17.4941 14.9136 20.742 14.9136 24.7484C14.9136 28.7548 18.1614 32.0026 22.1678 32.0026Z" stroke="#E00034" stroke-width="1.2" stroke-miterlimit="10" stroke-linecap="round" stroke-linejoin="round"/>
<path d="M9.87044 18.6696C13.8768 18.6696 17.1247 15.4218 17.1247 11.4154C17.1247 7.40896 13.8768 4.16113 9.87044 4.16113C5.86404 4.16113 2.61621 7.40896 2.61621 11.4154C2.61621 15.4218 5.86404 18.6696 9.87044 18.6696Z" stroke="#E00034" stroke-width="1.2" stroke-miterlimit="10" stroke-linecap="round" stroke-linejoin="round"/>
<path d="M11.9244 14.5193C11.4325 14.8132 10.8652 14.9804 10.2613 14.9804C8.3854 14.9804 6.86426 13.3643 6.86426 11.3715C6.86426 9.3788 8.3854 7.7627 10.2613 7.7627C10.8627 7.7627 11.4269 7.92828 11.9171 8.21969" stroke="#E00034" stroke-width="1.2" stroke-miterlimit="10" stroke-linecap="round" stroke-linejoin="round"/>
<path d="M10.1129 10.3467H6.04541" stroke="#E00034" stroke-width="1.2" stroke-miterlimit="10" stroke-linecap="round" stroke-linejoin="round"/>
<path d="M10.1129 12.3975H6.04541" stroke="#E00034" stroke-width="1.2" stroke-miterlimit="10" stroke-linecap="round" stroke-linejoin="round"/>
<path d="M15.1204 32.8512C5.18589 34.4998 -0.950619 27.666 1.41551 17.5879" stroke="#E00034" stroke-width="1.2" stroke-miterlimit="10" stroke-linecap="round" stroke-linejoin="round"/>
<path d="M13.0633 35.8146L15.7119 32.7707L12.668 30.1221" stroke="#E00034" stroke-width="1.2" stroke-miterlimit="10" stroke-linecap="round" stroke-linejoin="round"/>
<path d="M16.54 3.37034C26.4745 1.72177 32.6102 8.55553 30.2449 18.6337" stroke="#E00034" stroke-width="1.2" stroke-miterlimit="10" stroke-linecap="round" stroke-linejoin="round"/>
<path d="M18.596 0.40625L15.9482 3.45015L18.9921 6.09875" stroke="#E00034" stroke-width="1.2" stroke-miterlimit="10" stroke-linecap="round" stroke-linejoin="round"/>
</g>
<defs>
<clipPath id="clip0_1111_5415">
<rect width="30.6549" height="36.22" fill="white" transform="translate(0.502441)"/>
</clipPath>
</defs>
</svg>
