<svg width="36" height="35" viewBox="0 0 36 35" fill="none" xmlns="http://www.w3.org/2000/svg">
<g clip-path="url(#clip0_1173_1759)">
<path d="M33.3738 12.7893L27.9042 20.7109C27.4916 21.3094 26.6084 21.3094 26.1959 20.7109L20.7224 12.7854C17.2574 7.76711 20.6023 0.767413 26.6956 0.523372C26.8137 0.519499 26.9319 0.515625 27.05 0.515625C27.174 0.515625 27.296 0.517562 27.42 0.523372C33.5055 0.777097 36.8349 7.7768 33.3738 12.7893Z" stroke="#2E896E" stroke-width="1.03353" stroke-miterlimit="10" stroke-linecap="round"/>
<path d="M30.2668 9.12619C30.6862 7.35022 29.5864 5.57056 27.8105 5.1512C26.0345 4.73184 24.2548 5.8316 23.8355 7.60757C23.4161 9.38353 24.5159 11.1632 26.2918 11.5826C28.0678 12.0019 29.8475 10.9022 30.2668 9.12619Z" stroke="#2E896E" stroke-width="1.03353" stroke-miterlimit="10" stroke-linecap="round"/>
<path d="M19.9264 22.3143C19.7598 27.4895 15.4291 31.5472 10.2539 31.3806C5.07866 31.214 1.021 26.8833 1.18757 21.7081C1.35607 16.5329 5.68682 12.4733 10.8601 12.6418C16.0353 12.8083 20.0949 17.1391 19.9264 22.3143Z" stroke="#2E896E" stroke-width="1.03353" stroke-miterlimit="10" stroke-linecap="round"/>
<path d="M18.7348 27.0537L22.3625 30.1062C23.42 30.9952 23.5013 32.593 22.5426 33.5866C21.5839 34.5802 19.984 34.5531 19.0582 33.5285L15.8818 30.0093" stroke="#2E896E" stroke-width="1.03353" stroke-miterlimit="10" stroke-linecap="round"/>
<path d="M10.5039 16.455C13.5622 16.4008 16.0839 18.8373 16.1381 21.8955" stroke="#2E896E" stroke-width="1.03353" stroke-miterlimit="10" stroke-linecap="round"/>
</g>
<defs>
<clipPath id="clip0_1173_1759">
<rect width="34.6228" height="34.83" fill="white" transform="translate(0.666992)"/>
</clipPath>
</defs>
</svg>
