<svg width="35" height="34" viewBox="0 0 35 34" fill="none" xmlns="http://www.w3.org/2000/svg">
<g clip-path="url(#clip0_1003_1797)">
<path d="M26.1181 13.3547V8.48351C26.1181 8.04664 25.8833 7.64262 25.5041 7.42568L14.3974 1.09263C13.8342 0.771205 13.1436 0.771205 12.5813 1.09263L1.47459 7.42568C1.09445 7.64262 0.860596 8.04565 0.860596 8.48351V22.3935C0.860596 22.8304 1.09545 23.2344 1.47459 23.4513L12.6619 29.8312C13.1744 30.1237 13.8043 30.1237 14.3168 29.8312L16.8803 28.3693" stroke="#2E896E" stroke-width="1.2" stroke-linecap="round" stroke-linejoin="round"/>
<path d="M23.1296 9.48047L13.4888 14.9786L3.8479 9.48047" stroke="#2E896E" stroke-width="1.2" stroke-linecap="round" stroke-linejoin="round"/>
<path d="M13.4888 14.9785V27.1162" stroke="#2E896E" stroke-width="1.2" stroke-linecap="round" stroke-linejoin="round"/>
<path d="M23.0769 24.8496L25.7439 27.4698L29.9533 22.8633" stroke="#2E896E" stroke-width="1.2" stroke-linecap="round" stroke-linejoin="round"/>
<path d="M4.21924 21.0469L6.38863 22.2848" stroke="#2E896E" stroke-width="1.2" stroke-linecap="round" stroke-linejoin="round"/>
<path d="M22.3555 18.1839C23.4681 17.5401 24.7597 17.1719 26.137 17.1719C30.3136 17.1719 33.7 20.5583 33.7 24.7349C33.7 28.9115 30.3136 32.2979 26.137 32.2979C21.9604 32.2979 18.574 28.9115 18.574 24.7349C18.574 23.4382 18.9004 22.2182 19.4746 21.1524" stroke="#2E896E" stroke-width="1.2" stroke-linecap="round" stroke-linejoin="round"/>
</g>
<defs>
<clipPath id="clip0_1003_1797">
<rect width="33.7839" height="33.6465" fill="white" transform="translate(0.363037 0.353516)"/>
</clipPath>
</defs>
</svg>
