<svg width="70" height="60" viewBox="0 0 70 60" fill="none" xmlns="http://www.w3.org/2000/svg">
<path d="M65.6516 33.1094C67.2466 33.1094 68.1043 35.0215 66.9329 36.165L44.7454 57.8242C43.6771 58.8671 41.8091 58.1553 41.8088 56.6221V45.3867H3.30493C3.00991 45.3867 2.77086 45.1475 2.77075 44.8525V33.6436C2.7708 33.3485 3.00987 33.1094 3.30493 33.1094H65.6516ZM25.0139 2.17676C26.0823 1.13376 27.9514 1.84675 27.9514 3.37988V14.6152H66.4553C66.7502 14.6154 66.9895 14.8544 66.9895 15.1494V26.3574C66.9895 26.6524 66.7502 26.8914 66.4553 26.8916H4.10767C2.51299 26.8914 1.65526 24.9793 2.82642 23.8359L25.0139 2.17676Z" fill="#E33D43" stroke="#FFE6E1" stroke-width="1.06861" stroke-linejoin="round"/>
</svg>
