<svg width="32" height="32" viewBox="0 0 32 32" fill="none" xmlns="http://www.w3.org/2000/svg">
<path d="M5.20422 6.32227H2.78486C1.98285 6.32227 1.33325 6.97186 1.33325 7.77388V9.33194C1.33325 9.55452 1.48446 9.74807 1.69978 9.8013L3.26874 10.1932L2.0518 13.0323C1.89696 13.394 1.81712 13.7823 1.81712 14.1755V18.8775C1.81712 19.2077 1.85099 19.538 1.91753 19.861L2.30099 21.7057V24.2243C2.30099 24.759 2.73406 25.192 3.26874 25.192H7.1397C7.67438 25.192 8.10745 24.759 8.10745 24.2243V22.2888" stroke="#E00034" stroke-linecap="round" stroke-linejoin="round"/>
<path d="M30.8495 14.1774C30.8495 13.7843 30.7697 13.3948 30.6148 13.0343L29.3979 10.1952L30.9668 9.80325C31.1822 9.74882 31.3334 9.55527 31.3334 9.3339V7.77583C31.3334 6.97382 30.6838 6.32422 29.8818 6.32422H27.4624" stroke="#E00034" stroke-linecap="round" stroke-linejoin="round"/>
<path d="M6.65576 22.29H10.0429" stroke="#E00034" stroke-linecap="round" stroke-linejoin="round"/>
<path d="M4.23657 16.9682H8.48496C8.7898 16.9682 9.01964 16.6887 8.95915 16.3899L8.79706 15.577C8.66883 14.9359 8.22488 14.4024 7.61762 14.1593L6.17206 13.5811" stroke="#E00034" stroke-linecap="round" stroke-linejoin="round"/>
<path d="M6.65576 9.22559C6.65576 9.22559 9.07512 9.70946 16.3332 9.70946C24.559 9.70946 26.4945 9.22559 26.4945 9.22559" stroke="#E00034" stroke-linecap="round" stroke-linejoin="round"/>
<path d="M4.72046 7.29032L7.16159 2.40685C7.45675 1.81774 8.02772 1.41976 8.68215 1.34839C10.0007 1.20565 12.5507 1 16.3334 1C20.116 1 22.6648 1.20565 23.9846 1.34839C24.6402 1.41976 25.21 1.81774 25.5051 2.40685L27.9463 7.29032" stroke="#E00034" stroke-linecap="round" stroke-linejoin="round"/>
<path d="M19.2363 24.7092C19.9621 26.1608 21.4137 26.1608 21.4137 26.1608H22.8654C24.0629 26.1608 25.0428 25.181 25.0428 23.9834C25.0428 22.7858 24.0629 21.806 22.8654 21.806H21.4137C20.2162 21.806 19.2363 20.8262 19.2363 19.6286C19.2363 18.431 20.2162 17.4512 21.4137 17.4512H22.8654C22.8654 17.4512 24.317 17.4512 25.0428 18.9028" stroke="#E00034" stroke-linecap="round" stroke-linejoin="round"/>
<path d="M22.1396 16V17.4516" stroke="#E00034" stroke-linecap="round" stroke-linejoin="round"/>
<path d="M22.1396 26.1611V27.6127" stroke="#E00034" stroke-linecap="round" stroke-linejoin="round"/>
<path d="M17.5428 13.8435C18.8952 13.0609 20.4654 12.6133 22.1396 12.6133C27.2166 12.6133 31.3331 16.7298 31.3331 21.8068C31.3331 26.8838 27.2166 31.0004 22.1396 31.0004C17.0626 31.0004 12.946 26.8838 12.946 21.8068C12.946 20.2306 13.3428 18.7476 14.0408 17.452" stroke="#E00034" stroke-linecap="round" stroke-linejoin="round"/>
</svg>
