<svg width="49" height="23" viewBox="0 0 49 23" fill="none" xmlns="http://www.w3.org/2000/svg">
<path d="M35.7008 21.7032C33.4772 21.7032 31.6675 19.9272 31.6675 17.7451C31.6675 15.5631 33.4772 13.7871 35.7008 13.7871C37.9244 13.7871 39.7342 15.5631 39.7342 17.7451C39.7342 19.9272 37.9244 21.7032 35.7008 21.7032ZM35.7008 14.5145C33.8861 14.5145 32.4087 15.9631 32.4087 17.7451C32.4087 19.5271 33.8849 20.9758 35.7008 20.9758C37.5167 20.9758 38.993 19.5271 38.993 17.7451C38.993 15.9631 37.5167 14.5145 35.7008 14.5145Z" fill="#2E896E" stroke="#2E896E" stroke-width="0.460056"/>
<path d="M12.8981 21.7032C10.6745 21.7032 8.86475 19.9272 8.86475 17.7451C8.86475 15.5631 10.6745 13.7871 12.8981 13.7871C15.1217 13.7871 16.9314 15.5631 16.9314 17.7451C16.9314 19.9272 15.1217 21.7032 12.8981 21.7032ZM12.8981 14.5145C11.0834 14.5145 9.60594 15.9631 9.60594 17.7451C9.60594 19.5271 11.0822 20.9758 12.8981 20.9758C14.714 20.9758 16.1902 19.5271 16.1902 17.7451C16.1902 15.9631 14.714 14.5145 12.8981 14.5145Z" fill="#2E896E" stroke="#2E896E" stroke-width="0.460056"/>
<path d="M32.0394 18.1082H16.5608C16.3557 18.1082 16.1902 17.9458 16.1902 17.7445C16.1902 17.5433 16.3557 17.3809 16.5608 17.3809H32.0394C32.2445 17.3809 32.41 17.5433 32.41 17.7445C32.41 17.9458 32.2445 18.1082 32.0394 18.1082Z" fill="#2E896E" stroke="#2E896E" stroke-width="0.460056"/>
<path d="M44.4766 18.1087H39.3636C39.1586 18.1087 38.993 17.9463 38.993 17.7451C38.993 17.5438 39.1586 17.3814 39.3636 17.3814H44.195L45.7354 11.9165C45.9627 11.1092 45.7972 10.263 45.2796 9.59627C44.762 8.92953 43.9763 8.54767 43.1227 8.54767H11.8616C11.6565 8.54767 11.491 8.38522 11.491 8.18399C11.491 7.98276 11.6565 7.82031 11.8616 7.82031H43.1227C44.2098 7.82031 45.2116 8.30764 45.8701 9.15622C46.5285 10.0048 46.7397 11.0825 46.4494 12.1105L44.8336 17.842C44.7892 17.9996 44.6434 18.1087 44.4766 18.1087Z" fill="#2E896E" stroke="#2E896E" stroke-width="0.460056"/>
<path d="M9.23531 18.1089H7.85422C4.94379 18.1089 2.5769 15.7862 2.5769 12.9301V6.35242C2.5769 6.15118 2.74244 5.98874 2.9475 5.98874H6.99072L15.5404 0.955447C15.5985 0.921504 15.6639 0.90332 15.7307 0.90332H27.2019C27.2859 0.90332 27.3662 0.931202 27.4317 0.982117L36.3458 7.89926C36.5064 8.02412 36.5335 8.25203 36.4063 8.40962C36.2791 8.56721 36.0468 8.59388 35.8862 8.46902L27.0734 1.63067H15.8344L7.28473 6.66518C7.22667 6.69912 7.1612 6.71731 7.09449 6.71731H3.3181V12.9313C3.3181 15.3862 5.35268 17.3828 7.85422 17.3828H9.23531C9.44037 17.3828 9.60591 17.5452 9.60591 17.7464C9.60591 17.9477 9.44037 18.1101 9.23531 18.1101V18.1089Z" fill="#2E896E" stroke="#2E896E" stroke-width="0.460056"/>
<path d="M21.0525 8.54722C20.8474 8.54722 20.6819 8.38478 20.6819 8.18355V4.86075C20.6819 4.65951 20.8474 4.49707 21.0525 4.49707C21.2575 4.49707 21.4231 4.65951 21.4231 4.86075V8.18355C21.4231 8.38478 21.2575 8.54722 21.0525 8.54722Z" fill="#2E896E" stroke="#2E896E" stroke-width="0.460056"/>
</svg>
