<svg width="34" height="28" viewBox="0 0 34 28" fill="none" xmlns="http://www.w3.org/2000/svg">
<g clip-path="url(#clip0_1173_288)">
<path d="M15.2396 16.3899C15.2921 16.7103 15.0192 16.9816 14.7005 16.929C14.5072 16.8968 14.3512 16.7409 14.319 16.5476C14.2665 16.2272 14.5394 15.956 14.8581 16.0085C15.0514 16.039 15.2073 16.195 15.2396 16.3899Z" stroke="#2E896E" stroke-width="1.2" stroke-miterlimit="10" stroke-linecap="round"/>
<path d="M20.219 16.3899C20.2716 16.7103 19.9987 16.9816 19.6799 16.929C19.4867 16.8968 19.3307 16.7409 19.2985 16.5476C19.246 16.2272 19.5189 15.956 19.8376 16.0085C20.0326 16.039 20.1885 16.195 20.219 16.3899Z" stroke="#2E896E" stroke-width="1.2" stroke-miterlimit="10" stroke-linecap="round"/>
<path d="M9.0332 5.17578H11.5642C11.627 5.17578 11.6812 5.21986 11.6965 5.28089L13.5986 13.5369C13.6172 13.6182 13.6901 13.6759 13.7749 13.6759H20.6848C20.7797 13.6759 20.8628 13.6148 20.8899 13.525L22.6428 7.91195C22.6716 7.8204 22.6021 7.72716 22.5072 7.72716H14.7124" stroke="#2E896E" stroke-width="1.2" stroke-miterlimit="10" stroke-linecap="round"/>
<path d="M3.87305 18.5746V1.99823C3.87305 1.14382 4.56472 0.452148 5.41913 0.452148H28.9054C29.7598 0.452148 30.4515 1.14382 30.4515 1.99823V18.5746" stroke="#2E896E" stroke-width="1.2" stroke-miterlimit="10" stroke-linecap="round"/>
<path d="M31.6655 27.1089C32.6996 27.1089 33.5387 26.2697 33.5387 25.2356V24.0099C33.5387 23.9167 33.5048 23.8286 33.4421 23.759L30.7653 20.8347C30.7127 20.7771 30.6381 20.7432 30.5585 20.7432H3.76472C3.68674 20.7432 3.61215 20.7754 3.5579 20.8347L0.882763 23.759C0.820038 23.8269 0.786133 23.9167 0.786133 24.0099V25.2356C0.786133 26.2697 1.62529 27.1089 2.65941 27.1089H31.6655Z" stroke="#2E896E" stroke-width="1.2" stroke-miterlimit="10" stroke-linecap="round"/>
<path d="M5.54102 23.8652H28.6526" stroke="#2E896E" stroke-width="1.2" stroke-miterlimit="10" stroke-linecap="round"/>
</g>
<defs>
<clipPath id="clip0_1173_288">
<rect width="33.6579" height="27.56" fill="white" transform="translate(0.333008)"/>
</clipPath>
</defs>
</svg>
